Coordinates
version=1
nRows=13
nColumns=40
inDegrees=yes

Units are S.I. units (second, meters, Newtons, ...)
Angles are in degrees.

endheader
time	pelvis_tilt	pelvis_list	pelvis_rotation	pelvis_tx	pelvis_ty	pelvis_tz	hip_flexion_r	hip_adduction_r	hip_rotation_r	knee_angle_r	knee_angle_r_beta	ankle_angle_r	subtalar_angle_r	mtp_angle_r	hip_flexion_l	hip_adduction_l	hip_rotation_l	knee_angle_l	knee_angle_l_beta	ankle_angle_l	subtalar_angle_l	mtp_angle_l	lumbar_extension	lumbar_bending	lumbar_rotation	arm_flex_r	arm_add_r	arm_rot_r	elbow_flex_r	pro_sup_r	wrist_flex_r	wrist_dev_r	arm_flex_l	arm_add_l	arm_rot_l	elbow_flex_l	pro_sup_l	wrist_flex_l	wrist_dev_l
     31.50000000	     -0.28649644	     -4.96476335	      1.13226515	      1.06175606	      0.93155353	      0.48591566	     11.26277103	      1.89262768	    -13.86250341	     19.87021126	     19.87021126	     11.16618717	      2.46008188	     -4.45089182	     26.98254603	    -13.29373027	     -0.78333292	     61.71773765	     61.71773765	     11.08280125	    -18.04838788	     11.25233043	    -11.07376454	      5.39165472	      2.58136466	     12.95239407	    -17.73110302	      0.73919347	     48.13163799	     45.61248270	      0.00000000	      0.00000000	      7.40053375	    -12.20461061	     -9.70411121	     44.24383111	     45.71313820	      0.00000000	      0.00000000
     31.51307143	     -0.44959068	     -4.88349515	      1.45245876	      1.06071148	      0.93227067	      0.48611070	     10.66776889	      1.92043436	    -14.08447606	     19.03390994	     19.03390994	     11.18329016	      2.60949889	     -4.42663823	     27.99646022	    -13.12938044	     -0.83705080	     59.22086975	     59.22086975	     11.12916720	    -18.14332202	     11.24942488	    -11.07714564	      5.34654562	      2.67587598	     14.36884657	    -17.85903818	      0.64153184	     48.90961810	     45.59542755	      0.00000000	      0.00000000	      6.45791234	    -11.99516604	     -9.63768454	     43.66333589	     45.70592566	      0.00000000	      0.00000000
     31.52614286	     -0.68245830	     -4.77147303	      1.73927429	      1.05962872	      0.93280026	      0.48625504	     10.22278604	      1.89692323	    -14.26965658	     18.32588140	     18.32588140	     11.21150709	      2.72401434	     -4.46206463	     28.88688530	    -12.92347441	     -1.02271158	     56.41523714	     56.41523714	     11.07392573	    -18.13192746	     11.36484587	    -11.02232333	      5.30711902	      2.91122135	     15.68133861	    -18.07197377	      0.57894009	     49.57513368	     45.58105396	      0.00000000	      0.00000000	      5.57329900	    -11.75941815	     -9.56682459	     43.13647625	     45.69412267	      0.00000000	      0.00000000
     31.53921429	     -0.93019730	     -4.91802668	      2.07906057	      1.05852331	      0.93276647	      0.48647090	     10.06793101	      2.08860080	    -14.53980817	     18.14775516	     18.14775516	     11.45582585	      2.63628154	     -4.56740401	     29.80878381	    -12.91992090	     -0.95765358	     53.59384301	     53.59384301	     11.18190309	    -17.79761594	     11.63229655	    -10.89116906	      5.49613940	      3.49594286	     16.78212315	    -18.42642542	      0.46887943	     49.98877473	     45.57735125	      0.00000000	      0.00000000	      4.92622662	    -11.51958146	     -9.52295319	     42.87163256	     45.68200291	      0.00000000	      0.00000000
     31.55228571	     -0.99840623	     -4.66849067	      2.34189581	      1.05775139	      0.93368781	      0.48626505	      9.03894957	      1.98784473	    -14.82212718	     16.63366629	     16.63366629	     10.83962040	      3.15002408	     -5.73218962	     29.92123205	    -12.43349411	     -1.26456950	     49.88837952	     49.88837952	     10.18969086	    -18.03820946	     10.05857483	    -11.04217126	      5.31688473	      2.92789332	     18.52163555	    -18.54742962	      1.32844256	     51.27764180	     45.50095186	      0.00000000	      0.00000000	      3.83028244	    -11.37699698	     -9.57109262	     41.46181800	     45.72155920	      0.00000000	      0.00000000
     31.56535714	     -1.21332338	     -4.58855295	      2.61003666	      1.05683220	      0.93386155	      0.48610857	      8.65727571	      1.98925846	    -14.89535732	     16.06940581	     16.06940581	     10.90870358	      3.07953066	     -5.73775570	     30.27954919	    -12.03319239	     -1.28851681	     46.36138895	     46.36138895	      9.98474830	    -17.71571034	     10.47162513	    -10.97988515	      5.26457994	      3.15262581	     19.71577022	    -18.75139079	      1.23146008	     51.91973587	     45.48872888	      0.00000000	      0.00000000	      3.00182206	    -11.17594007	     -9.53026002	     41.03995812	     45.71157751	      0.00000000	      0.00000000
     31.57842857	     -1.36796042	     -4.54982211	      2.89635071	      1.05601959	      0.93397710	      0.48573737	      8.18385135	      2.02168665	    -15.04976159	     15.46075681	     15.46075681	     10.95700671	      3.08367959	     -5.81978567	     30.43108489	    -11.60923413	     -1.22550775	     42.67455439	     42.67455439	      9.68898282	    -17.20559762	     10.69832626	    -10.97479469	      5.28355674	      3.15797616	     20.97221161	    -18.83225346	      1.18015488	     52.75706708	     45.46783387	      0.00000000	      0.00000000	      2.13377751	    -11.03908179	     -9.50049041	     40.48380469	     45.70269646	      0.00000000	      0.00000000
     31.59150000	     -1.51237964	     -4.61392511	      3.20702712	      1.05527415	      0.93391531	      0.48521927	      7.68487075	      2.15605628	    -15.28164048	     14.80970411	     14.80970411	     10.88933324	      3.17675196	     -6.21796155	     30.47062554	    -11.23035090	     -0.99825946	     38.88829819	     38.88829819	      9.01686555	    -16.50809439	      9.93342841	    -10.99656612	      5.42718198	      2.97123168	     22.24797363	    -18.90541741	      1.32726930	     53.98542574	     45.42527129	      0.00000000	      0.00000000	      1.26330087	    -10.86319238	     -9.57303315	     39.72413178	     45.71520185	      0.00000000	      0.00000000
     31.60457143	     -1.79328174	     -4.60144265	      3.47074548	      1.05449062	      0.93346467	      0.48457366	      7.53989182	      2.14588512	    -15.39028888	     14.57095329	     14.57095329	     11.05881200	      3.04312569	     -6.35890872	     30.60717276	    -10.79151918	     -0.86988079	     35.24211173	     35.24211173	      8.76697294	    -15.17769945	     10.14811282	    -10.81105797	      5.42757407	      3.19989718	     23.22901727	    -19.13542075	      1.25529525	     54.61241865	     45.41158722	      0.00000000	      0.00000000	      0.55968615	    -10.64273644	     -9.56850320	     39.35849510	     45.70839841	      0.00000000	      0.00000000
     31.61764286	     -1.88868069	     -4.58756332	      3.75299795	      1.05392133	      0.93323599	      0.48378397	      7.13411243	      2.15367018	    -15.49339683	     14.24199979	     14.24199979	     11.21255907	      2.94714777	     -6.53944097	     30.41804445	    -10.35373051	     -0.72780214	     31.63410752	     31.63410752	      8.37527972	    -13.58233558	     10.08936524	    -10.85810342	      5.45833128	      3.10508811	     24.27603404	    -19.07995123	      1.23920010	     55.64784753	     45.38152314	      0.00000000	      0.00000000	     -0.21511366	    -10.58945062	     -9.60991862	     38.79033359	     45.70732768	      0.00000000	      0.00000000
     31.63071429	     -2.01621616	     -4.63106452	      4.05172853	      1.05341126	      0.93280678	      0.48286882	      6.78356281	      2.21016808	    -15.61781951	     13.95927043	     13.95927043	     11.37450033	      2.82662504	     -6.74601504	     30.28719618	     -9.96248808	     -0.50521998	     28.34147249	     28.34147249	      7.96587834	    -11.73036406	      9.88511121	    -10.82776906	      5.49163076	      2.98375431	     25.25470330	    -19.03432364	      1.23004017	     56.79082093	     45.34735589	      0.00000000	      0.00000000	     -0.94913826	    -10.45922109	     -9.67195609	     38.21679844	     45.70937849	      0.00000000	      0.00000000
     31.64378571	     -2.10567149	     -4.70164602	      4.36215038	      1.05301470	      0.93232377	      0.48180213	      6.41564422	      2.28419047	    -15.75780771	     13.73274812	     13.73274812	     11.56281854	      2.66375822	     -6.98011115	     30.14269931	     -9.62084054	     -0.31352211	     25.45310177	     25.45310177	      7.51878745	     -9.77561408	      9.55370206	    -10.82833289	      5.57987870	      2.84338083	     26.13798977	    -18.97413455	      1.22615840	     58.08134589	     45.30783993	      0.00000000	      0.00000000	     -1.61999584	    -10.33943647	     -9.78030909	     37.61764570	     45.71857993	      0.00000000	      0.00000000
     31.65685714	     -2.14357298	     -4.83145074	      4.67499596	      1.05281379	      0.93178375	      0.48060121	      5.94980698	      2.43721727	    -15.82634281	     13.42125841	     13.42125841	     11.52293596	      2.35638216	     -7.71250768	     29.91137390	     -9.36722219	     -0.17850205	     22.86261981	     22.86261981	      6.24727880	     -8.06985013	      7.01466636	    -10.89190132	      5.75929742	      3.03494319	     26.24847813	    -19.35498880	      1.25935972	     60.95797057	     45.21972213	      0.00000000	      0.00000000	     -1.78613719	     -9.98585303	    -10.56077683	     36.45474065	     45.84655287	      0.00000000	      0.00000000
